<svg xmlns="http://www.w3.org/2000/svg" viewBox="0 0 40 56">
	<path fill="#6e6e73" d="M19.25,38.26V36.74h-3A1.14,1.14,0,0,1,15,35.55V20.47a1.16,1.16,0,0,1,1.22-1.21h3V17.72a.78.78,0,0,1,.8-.8.76.76,0,0,1,.78.8v1.54h.32c3,0,5,1.86,5,4.45a4.26,4.26,0,0,1-2.44,3.83A4.43,4.43,0,0,1,27,31.86c0,3-2.23,4.88-5.82,4.88h-.36v1.52a.77.77,0,0,1-.78.82A.78.78,0,0,1,19.25,38.26Zm0-11.42V21.08H17l0,5.76Zm0,8.06V28.65H17V34.9Zm4.88-11.07c0-1.66-1.17-2.64-3.3-2.73v5.66C23,26.6,24.13,25.53,24.13,23.83Zm.88,8c0-1.95-1.42-3.05-4.18-3.13v6.21C23.65,34.83,25,33.75,25,31.8Z"/>
	<path fill="#6e6e73" d="M20,10.7A17.3,17.3,0,1,1,2.7,28,17.32,17.32,0,0,1,20,10.7m0-2.2A19.5,19.5,0,1,0,39.5,28,19.5,19.5,0,0,0,20,8.5Z"/>
</svg>
